<?xml version="1.0" encoding="UTF-8" standalone="no"?>
<!-- Generator: Adobe Illustrator 19.0.1, SVG Export Plug-In . SVG Version: 6.00 Build 0)  -->

<svg
   xmlns:dc="http://purl.org/dc/elements/1.1/"
   xmlns:cc="http://creativecommons.org/ns#"
   xmlns:rdf="http://www.w3.org/1999/02/22-rdf-syntax-ns#"
   xmlns:svg="http://www.w3.org/2000/svg"
   xmlns="http://www.w3.org/2000/svg"
   xmlns:sodipodi="http://sodipodi.sourceforge.net/DTD/sodipodi-0.dtd"
   xmlns:inkscape="http://www.inkscape.org/namespaces/inkscape"
   version="1.1"
   id="Слой_1"
   x="0px"
   y="0px"
   viewBox="0 0 278.2 40"
   xml:space="preserve"
   sodipodi:docname="kritika.svg"
   width="278.20001"
   height="40"
   inkscape:version="0.92.2 (5c3e80d, 2017-08-06)"><metadata
     id="metadata969"><rdf:RDF><cc:Work
         rdf:about=""><dc:format>image/svg+xml</dc:format><dc:type
           rdf:resource="http://purl.org/dc/dcmitype/StillImage" /><dc:title /></cc:Work></rdf:RDF></metadata><defs
     id="defs967" /><sodipodi:namedview
     pagecolor="#ffffff"
     bordercolor="#666666"
     borderopacity="1"
     objecttolerance="10"
     gridtolerance="10"
     guidetolerance="10"
     inkscape:pageopacity="0"
     inkscape:pageshadow="2"
     inkscape:window-width="1920"
     inkscape:window-height="1020"
     id="namedview965"
     showgrid="false"
     inkscape:zoom="2.4577259"
     inkscape:cx="68.021658"
     inkscape:cy="-60.5"
     inkscape:window-x="0"
     inkscape:window-y="31"
     inkscape:window-maximized="1"
     inkscape:current-layer="Слой_1" /><style
     type="text/css"
     id="style912">
	.st0{fill:#3F3F3F;}
	.st1{fill:#3D8C3F;}
	.st2{fill:#4DB04F;}
</style><path
     class="st0"
     d="M 19.2,0 0.6,18.6 c -0.8,0.8 -0.8,2 0,2.8 L 8.7,29.5 38.2,0 v 0 c -7.4,0 -11.6,0 -19,0 z"
     id="path914"
     inkscape:connector-curvature="0"
     style="fill:#3f3f3f" /><rect
     x="-14.672736"
     y="29.86805"
     transform="rotate(-45)"
     class="st1"
     width="13.399871"
     height="11.899885"
     id="rect916"
     style="fill:#3d8c3f;stroke-width:0.9999904" /><path
     id="XMLID_85_"
     class="st2"
     d="m 57.2,1.9 -28.5,28.5 -9.5,9.5 c 7.4,0 11.6,0 19,0 v 0 L 66.7,11.4 Z"
     inkscape:connector-curvature="0"
     style="fill:#4db04f" /><path
     class="st0"
     d="M 88.6,10.5 78.1,0 c -7.4,0 -11.6,0 -19,0 v 0 0 l 18.6,18.6 c 0.7,0.7 0.7,1.9 0,2.7 L 59.1,39.9 c 0,0 0,0 0,0 v 0 c 7.4,0 11.6,0 19,0 l 10.5,-10.5 8.2,-8.2 c 0.7,-0.7 0.7,-1.9 0,-2.7 z"
     id="path919"
     inkscape:connector-curvature="0"
     style="fill:#3f3f3f" /><path
     class="st0"
     d="m 161.2,10 h -10 c -2.7,2.7 -4.3,4.3 -7,7 v 21 c 0,1.1 0.9,2 2,2 h 6 c 1.1,0 2,-0.9 2,-2 V 20 h 7 c 1.1,0 2,-0.9 2,-2 v -6 c 0,-1.1 -0.9,-2 -2,-2 z"
     id="path921"
     inkscape:connector-curvature="0"
     style="fill:#3f3f3f" /><path
     class="st0"
     d="m 174.2,8 h -6 c -1.1,0 -2,-0.9 -2,-2 V 2 c 0,-1.1 0.9,-2 2,-2 h 6 c 1.1,0 2,0.9 2,2 v 4 c 0,1.1 -0.9,2 -2,2 z"
     id="path923"
     inkscape:connector-curvature="0"
     style="fill:#3f3f3f" /><path
     class="st0"
     d="m 174.2,40 h -6 c -1.1,0 -2,-0.9 -2,-2 V 12 c 0,-1.1 0.9,-2 2,-2 h 6 c 1.1,0 2,0.9 2,2 v 26 c 0,1.1 -0.9,2 -2,2 z"
     id="path925"
     inkscape:connector-curvature="0"
     style="fill:#3f3f3f" /><path
     class="st0"
     d="m 214.2,8 h -6 c -1.1,0 -2,-0.9 -2,-2 V 2 c 0,-1.1 0.9,-2 2,-2 h 6 c 1.1,0 2,0.9 2,2 v 4 c 0,1.1 -0.9,2 -2,2 z"
     id="path927"
     inkscape:connector-curvature="0"
     style="fill:#3f3f3f" /><path
     class="st0"
     d="m 214.2,40 h -6 c -1.1,0 -2,-0.9 -2,-2 V 12 c 0,-1.1 0.9,-2 2,-2 h 6 c 1.1,0 2,0.9 2,2 v 26 c 0,1.1 -0.9,2 -2,2 z"
     id="path929"
     inkscape:connector-curvature="0"
     style="fill:#3f3f3f" /><path
     class="st0"
     d="m 201.2,30 h -7 V 20 h 6 c 1.1,0 2,-0.9 2,-2 v -6 c 0,-1.1 -0.9,-2 -2,-2 h -6 V 2 c 0,-1.1 -0.9,-2 -2,-2 h -6 c -1.1,0 -2,0.9 -2,2 v 8 h -4 c -1.1,0 -2,0.9 -2,2 v 6 c 0,1.1 0.9,2 2,2 h 4 v 13 c 2.7,2.7 4.3,4.3 7,7 h 3 7 c 1.1,0 2,-0.9 2,-2 v -6 c 0,-1.1 -0.9,-2 -2,-2 z"
     id="path931"
     inkscape:connector-curvature="0"
     style="fill:#3f3f3f" /><path
     class="st0"
     d="M 129.4,18.8 141.7,3.3 c 1,-1.3 0.1,-3.2 -1.6,-3.2 h -6.9 c -0.6,0 -1.2,0.3 -1.5,0.7 L 120.3,14.6 V 2 c 0,-1.1 -0.9,-2 -2,-2 h -7 c -1.1,0 -2,0.9 -2,2 v 36 c 0,1.1 0.9,2 2,2 h 7 c 1.1,0 2,-0.9 2,-2 V 25.4 l 11.4,13.8 c 0.4,0.5 0.9,0.7 1.5,0.7 h 6.9 c 1.7,0 2.6,-1.9 1.6,-3.2 L 129.4,21.2 c -0.6,-0.7 -0.6,-1.7 0,-2.4 z"
     id="path933"
     inkscape:connector-curvature="0"
     style="fill:#3f3f3f" /><path
     class="st0"
     d="M 238.3,23.6 248,13.4 c 1.2,-1.3 0.3,-3.4 -1.5,-3.4 H 239 c -0.6,0 -1.1,0.2 -1.5,0.6 l -8.4,9.1 V 2 c 0,-1.1 -0.9,-2 -2,-2 h -6 c -1.1,0 -2,0.9 -2,2 v 36 c 0,1.1 0.9,2 2,2 h 6 c 1.1,0 2,-0.9 2,-2 v -7.7 l 8.4,9.1 c 0.4,0.4 0.9,0.6 1.5,0.6 h 7.5 c 1.8,0 2.7,-2.1 1.5,-3.4 l -9.7,-10.2 c -0.7,-0.8 -0.7,-2 0,-2.8 z"
     id="path935"
     inkscape:connector-curvature="0"
     style="fill:#3f3f3f" /><path
     class="st0"
     d="m 276.2,10 h -8 -9 -3 c -2.7,2.7 -4.3,4.3 -7,7 v 16 c 2.7,2.7 4.3,4.3 7,7 h 3 4 c 1.1,0 2,-0.9 2,-2 v -6 c 0,-1.1 -0.9,-2 -2,-2 h -4 V 20 h 9 v 18 c 0,1.1 0.9,2 2,2 h 6 c 1.1,0 2,-0.9 2,-2 V 12 c 0,-1.1 -0.9,-2 -2,-2 z"
     id="path937"
     inkscape:connector-curvature="0"
     style="fill:#3f3f3f" /></svg>